#!OML:ASF X:\für Bonn\!DataBase\2005_08_11_Bastian_Final\c3d\Bastian.ASF
:FULLY-SPECIFIED
:DEGREES
658
root 1.4024 1.21634 25.3481 -806.795 -176.106 -717.886
lowerback -3.04125 -2.08693 -3.65292
upperback 3.03888 -2.63878 0.16564
thorax 5.0276 -1.45991 2.01785
lowerneck -30.7633 -0.23891 -0.317392
upperneck 12.9814 -0.111868 0.0929585
head 8.96529 -0.00381067 0.0736409
rclavicle -7.95139e-016 5.66536e-015
rhumerus -63.8918 55.0439 -110.188
rradius 24.3651
rwrist -12.0677
rhand -14.0749 -8.03275
rfingers 7.12502
rthumb 12.0569 -37.6654
lclavicle -7.95139e-016 5.66536e-015
lhumerus -46.5679 -43.8545 93.6121
lradius 17.935
lwrist 22.7736
lhand -7.93782 -2.95411
lfingers 7.12502
lthumb 17.9687 26.2358
rfemur -15.1895 9.45046 17.5927
rtibia 33.5063
rfoot -12.7077 -26.4463
rtoes 4.72564
lfemur -8.10069 4.63565 -21.7124
ltibia 16.9637
lfoot 2.35509 3.35995
ltoes -25.6023
659
root 1.40169 1.21594 25.3476 -806.774 -176.107 -717.875
lowerback -3.07692 -2.08315 -3.63307
upperback 3.03594 -2.63215 0.150335
thorax 5.04265 -1.45551 1.99018
lowerneck -30.7655 -0.238515 -0.294859
upperneck 12.9831 -0.115071 0.066457
head 8.96619 -0.00735371 0.0602247
rclavicle 2.8625e-014 6.95746e-016
rhumerus -63.8604 54.994 -110.148
rradius 24.3854
rwrist -12.0721
rhand -14.0596 -8.03609
rfingers 7.12502
rthumb 12.0716 -37.6679
lclavicle 2.8625e-014 6.95746e-016
lhumerus -46.5344 -43.8544 93.5677
lradius 17.9222
lwrist 22.8009
lhand -7.94695 -2.93859
lfingers 7.12502
lthumb 17.9599 26.2522
rfemur -15.2208 9.40186 17.5856
rtibia 33.5145
rfoot -12.7254 -26.4138
rtoes 4.83065
lfemur -8.12547 4.6231 -21.7169
ltibia 16.9591
lfoot 2.36003 3.36442
ltoes -25.5628
660
root 1.40181 1.21541 25.3479 -806.752 -176.105 -717.876
lowerback -3.11523 -2.08053 -3.62677
upperback 3.04803 -2.62692 0.142641
thorax 5.07614 -1.45317 1.97738
lowerneck -30.8101 -0.225983 -0.283716
upperneck 13.0038 -0.0982395 0.0461778
head 8.98027 -0.00128671 0.0539939
rclavicle -1.82882e-014 9.24349e-015
rhumerus -63.8677 55.0158 -110.173
rradius 24.4039
rwrist -12.1463
rhand -14.0869 -8.03699
rfingers 7.12502
rthumb 12.0453 -37.6703
lclavicle -1.82882e-014 9.24349e-015
lhumerus -46.5502 -43.9424 93.6016
lradius 17.9319
lwrist 22.9508
lhand -7.96474 -2.94755
lfingers 7.12502
lthumb 17.9428 26.2448
rfemur -15.2559 9.36822 17.5845
rtibia 33.5246
rfoot -12.6817 -26.4032
rtoes 4.60743
lfemur -8.14754 4.6211 -21.7202
ltibia 16.9474
lfoot 2.37385 3.35541
ltoes -25.5334
661
root 1.40102 1.21525 25.3482 -806.728 -176.107 -717.887
lowerback -3.15347 -2.0789 -3.63017
upperback 3.04431 -2.62344 0.155763
thorax 5.09466 -1.45192 1.99182
lowerneck -30.8077 -0.233027 -0.321354
upperneck 12.9938 -0.090585 0.0397092
head 8.97635 -0.000444576 0.0588708
rclavicle 4.6118e-014 1.71949e-014
rhumerus -63.907 55.0478 -110.179
rradius 24.4168
rwrist -12.1812
rhand -14.0903 -8.02693
rfingers 7.12502
rthumb 12.0421 -37.6605
lclavicle 4.6118e-014 1.71949e-014
lhumerus -46.5248 -43.8821 93.5817
lradius 17.9246
lwrist 22.939
lhand -7.98353 -2.95678
lfingers 7.12502
lthumb 17.9247 26.2372
rfemur -15.2911 9.33944 17.577
rtibia 33.5337
rfoot -12.6585 -26.3546
rtoes 4.61916
lfemur -8.16724 4.60569 -21.7242
ltibia 16.9362
lfoot 2.34903 3.39747
ltoes -25.4701
662
root 1.40082 1.21542 25.349 -806.717 -176.105 -717.897
lowerback -3.1848 -2.06449 -3.61026
upperback 3.04632 -2.60248 0.132643
thorax 5.11113 -1.44037 1.95725
lowerneck -30.8042 -0.212616 -0.255312
upperneck 12.9988 -0.0768565 -0.0260106
head 8.9775 0.00132273 0.0274163
rclavicle 1.90833e-014 -8.84592e-015
rhumerus -63.9909 55.052 -110.295
rradius 24.4343
rwrist -12.2651
rhand -14.1089 -8.0391
rfingers 7.12502
rthumb 12.0241 -37.6737
lclavicle 1.90833e-014 -8.84592e-015
lhumerus -46.5206 -43.9325 93.5594
lradius 17.921
lwrist 23.0079
lhand -7.97589 -2.96619
lfingers 7.12502
lthumb 17.932 26.2271
rfemur -15.3083 9.32818 17.5713
rtibia 33.541
rfoot -12.6416 -26.34
rtoes 4.66572
lfemur -8.1732 4.60357 -21.7285
ltibia 16.9295
lfoot 2.35048 3.39483
ltoes -25.4185
663
root 1.40085 1.21481 25.3493 -806.693 -176.105 -717.899
lowerback -3.22373 -2.06309 -3.60404
upperback 3.05209 -2.59892 0.127741
thorax 5.13862 -1.43866 1.94741
lowerneck -30.8264 -0.207904 -0.250271
upperneck 12.9794 -0.0679095 -0.0433564
head 8.97396 0.00417447 0.0219911
rclavicle 1.98785e-014 -7.35503e-015
rhumerus -63.9557 55.0588 -110.266
rradius 24.4447
rwrist -12.3009
rhand -14.0903 -8.04437
rfingers 7.12502
rthumb 12.0421 -37.6779
lclavicle 1.98785e-014 -7.35503e-015
lhumerus -46.4942 -43.9502 93.5453
lradius 17.9076
lwrist 23.0687
lhand -8.02541 -2.98671
lfingers 7.12502
lthumb 17.8844 26.211
rfemur -15.3368 9.38433 17.5669
rtibia 33.5456
rfoot -12.6739 -26.3679
rtoes 4.74508
lfemur -8.20088 4.60456 -21.7317
ltibia 16.9261
lfoot 2.35725 3.39699
ltoes -25.4238
664
root 1.40099 1.21427 25.3496 -806.671 -176.103 -717.9
lowerback -3.26708 -2.05741 -3.60165
upperback 3.06241 -2.58956 0.127677
thorax 5.17346 -1.43455 1.94493
lowerneck -30.8789 -0.210212 -0.253739
upperneck 12.9857 -0.0620504 -0.0746537
head 8.98413 0.00326315 0.0124619
rclavicle -1.43125e-014 1.32192e-014
rhumerus -63.9136 55.0545 -110.217
rradius 24.4493
rwrist -12.3048
rhand -14.0973 -8.07112
rfingers 7.12502
rthumb 12.0353 -37.7051
lclavicle -1.43125e-014 1.32192e-014
lhumerus -46.464 -43.9842 93.5507
lradius 17.8906
lwrist 23.1141
lhand -8.05799 -2.97851
lfingers 7.12502
lthumb 17.853 26.222
rfemur -15.3657 9.39553 17.5614
rtibia 33.548
rfoot -12.6673 -26.3782
rtoes 4.75432
lfemur -8.22989 4.60256 -21.7351
ltibia 16.9289
lfoot 2.36167 3.3814
ltoes -25.4255
665
root 1.40052 1.2141 25.3498 -806.648 -176.102 -717.891
lowerback -3.31025 -2.05966 -3.58909
upperback 3.06944 -2.591 0.121507
thorax 5.20464 -1.43512 1.92963
lowerneck -30.9203 -0.208323 -0.26276
upperneck 12.9942 -0.0570556 -0.0654414
head 8.99344 0.00651401 0.0179654
rclavicle -7.95139e-016 -1.15295e-014
rhumerus -64.0496 55.1301 -110.363
rradius 24.5084
rwrist -12.4584
rhand -14.1394 -8.10567
rfingers 7.12502
rthumb 11.9947 -37.742
lclavicle -7.95139e-016 -1.15295e-014
lhumerus -46.4504 -43.9941 93.5266
lradius 17.906
lwrist 23.1643
lhand -8.03721 -3.00194
lfingers 7.12502
lthumb 17.873 26.1968
rfemur -15.3923 9.38089 17.5545
rtibia 33.5475
rfoot -12.661 -26.3588
rtoes 4.78855
lfemur -8.2654 4.63069 -21.745
ltibia 16.9401
lfoot 2.37857 3.34238
ltoes -25.6026
666
root 1.39952 1.21375 25.3503 -806.615 -176.127 -717.909
lowerback -3.35873 -2.0422 -3.53034
upperback 3.0647 -2.56771 0.10382
thorax 5.22207 -1.42091 1.8788
lowerneck -30.9116 -0.202837 -0.216404
upperneck 12.9659 -0.0612851 -0.0984035
head 8.98205 0.00339414 -0.00159739
rclavicle 4.77083e-015 -1.16289e-014
rhumerus -63.9785 55.0592 -110.31
rradius 24.4939
rwrist -12.4221
rhand -14.1379 -8.09505
rfingers 7.12502
rthumb 11.9962 -37.7313
lclavicle 4.77083e-015 -1.16289e-014
lhumerus -46.4257 -43.998 93.4588
lradius 17.9152
lwrist 23.1506
lhand -8.0529 -2.99527
lfingers 7.12502
lthumb 17.8579 26.2048
rfemur -15.4357 9.33366 17.5705
rtibia 33.5504
rfoot -12.6173 -26.2916
rtoes 4.79955
lfemur -8.30185 4.62775 -21.7242
ltibia 16.9459
lfoot 2.36473 3.36627
ltoes -25.4316
667
root 1.39946 1.21336 25.3503 -806.603 -176.126 -717.91
lowerback -3.38884 -2.03848 -3.52137
upperback 3.07966 -2.56157 0.0947598
thorax 5.25369 -1.41805 1.86345
lowerneck -30.9606 -0.203102 -0.216223
upperneck 12.9599 -0.0602001 -0.0996432
head 8.9873 0.00435769 -0.00181499
rclavicle -1.74931e-014 -8.24956e-015
rhumerus -63.8588 55.0156 -110.203
rradius 24.4747
rwrist -12.3679
rhand -14.1361 -8.08193
rfingers 7.12502
rthumb 11.9978 -37.7181
lclavicle -1.74931e-014 -8.24956e-015
lhumerus -46.3706 -44.0069 93.4249
lradius 17.8917
lwrist 23.1684
lhand -8.06892 -3.01206
lfingers 7.12502
lthumb 17.8425 26.1894
rfemur -15.4552 9.32146 17.565
rtibia 33.5553
rfoot -12.609 -26.2647
rtoes 4.8112
lfemur -8.3198 4.61095 -21.7281
ltibia 16.9512
lfoot 2.36047 3.38339
ltoes -25.4304
668
root 1.39942 1.2133 25.3498 -806.58 -176.125 -717.911
lowerback -3.43093 -2.04148 -3.53808
upperback 3.08483 -2.56363 0.110329
thorax 5.28489 -1.4205 1.88708
lowerneck -30.9846 -0.194172 -0.236338
upperneck 12.9509 -0.0368008 -0.110497
head 8.98774 0.013225 0.00129403
rclavicle 2.78299e-014 1.59028e-015
rhumerus -63.9183 55.0738 -110.23
rradius 24.5075
rwrist -12.4205
rhand -14.137 -8.0881
rfingers 7.12502
rthumb 11.997 -37.7243
lclavicle 2.78299e-014 1.59028e-015
lhumerus -46.3458 -43.9944 93.4295
lradius 17.8792
lwrist 23.2076
lhand -8.11905 -3.03928
lfingers 7.12502
lthumb 17.7943 26.1666
rfemur -15.4848 9.31922 17.5602
rtibia 33.5615
rfoot -12.6165 -26.2469
rtoes 4.88672
lfemur -8.34658 4.61117 -21.731
ltibia 16.954
lfoot 2.36369 3.37006
ltoes -25.3446
